<mxfile host="app.diagrams.net" modified="2024-01-25T13:50:28.534Z" agent="Mozilla/5.0 (Windows NT 10.0; Win64; x64) AppleWebKit/537.36 (KHTML, like Gecko) Chrome/120.0.0.0 Safari/537.36" etag="5i7j7_iqX7vbMZkOAHbx" version="23.0.1" type="github">
  <diagram name="Страница — 1" id="yuKdFqqE-V8kG0KUItZW">
    <mxGraphModel dx="1810" dy="1342" grid="1" gridSize="10" guides="1" tooltips="1" connect="1" arrows="1" fold="1" page="1" pageScale="1" pageWidth="827" pageHeight="1169" math="0" shadow="0">
      <root>
        <mxCell id="0" />
        <mxCell id="1" parent="0" />
        <mxCell id="6sI7KEWMDTBBUR29SSHE-11" value="" style="rounded=0;whiteSpace=wrap;html=1;fillColor=none;dashed=1;dashPattern=8 8;" vertex="1" parent="1">
          <mxGeometry x="-285" y="310" width="575" height="250" as="geometry" />
        </mxCell>
        <mxCell id="6sI7KEWMDTBBUR29SSHE-24" style="edgeStyle=orthogonalEdgeStyle;rounded=0;orthogonalLoop=1;jettySize=auto;html=1;entryX=0.5;entryY=0;entryDx=0;entryDy=0;strokeWidth=2;" edge="1" parent="1" source="6sI7KEWMDTBBUR29SSHE-1" target="6sI7KEWMDTBBUR29SSHE-11">
          <mxGeometry relative="1" as="geometry" />
        </mxCell>
        <mxCell id="6sI7KEWMDTBBUR29SSHE-1" value="&lt;font style=&quot;font-size: 16px;&quot;&gt;External forces&lt;/font&gt;" style="rounded=1;whiteSpace=wrap;html=1;fillColor=#f8cecc;strokeColor=#b85450;" vertex="1" parent="1">
          <mxGeometry x="-97.5" y="140" width="200" height="80" as="geometry" />
        </mxCell>
        <mxCell id="6sI7KEWMDTBBUR29SSHE-20" style="edgeStyle=orthogonalEdgeStyle;rounded=0;orthogonalLoop=1;jettySize=auto;html=1;entryX=0.5;entryY=1;entryDx=0;entryDy=0;exitX=0.5;exitY=1;exitDx=0;exitDy=0;strokeWidth=2;" edge="1" parent="1" source="6sI7KEWMDTBBUR29SSHE-2" target="6sI7KEWMDTBBUR29SSHE-6">
          <mxGeometry relative="1" as="geometry" />
        </mxCell>
        <mxCell id="6sI7KEWMDTBBUR29SSHE-22" style="edgeStyle=orthogonalEdgeStyle;rounded=0;orthogonalLoop=1;jettySize=auto;html=1;exitX=0.5;exitY=0;exitDx=0;exitDy=0;entryX=0.5;entryY=0;entryDx=0;entryDy=0;strokeWidth=2;" edge="1" parent="1" source="6sI7KEWMDTBBUR29SSHE-2" target="6sI7KEWMDTBBUR29SSHE-6">
          <mxGeometry relative="1" as="geometry" />
        </mxCell>
        <mxCell id="6sI7KEWMDTBBUR29SSHE-2" value="&lt;font style=&quot;font-size: 16px;&quot;&gt;Sensors&lt;/font&gt;" style="rounded=1;whiteSpace=wrap;html=1;fillColor=#dae8fc;strokeColor=#6c8ebf;" vertex="1" parent="1">
          <mxGeometry x="40" y="400" width="200" height="80" as="geometry" />
        </mxCell>
        <mxCell id="6sI7KEWMDTBBUR29SSHE-16" style="edgeStyle=orthogonalEdgeStyle;rounded=0;orthogonalLoop=1;jettySize=auto;html=1;entryX=0;entryY=0.5;entryDx=0;entryDy=0;strokeWidth=2;" edge="1" parent="1" source="6sI7KEWMDTBBUR29SSHE-3" target="6sI7KEWMDTBBUR29SSHE-2">
          <mxGeometry relative="1" as="geometry" />
        </mxCell>
        <mxCell id="6sI7KEWMDTBBUR29SSHE-3" value="&lt;font style=&quot;font-size: 16px;&quot;&gt;FPGA&lt;/font&gt;" style="rounded=1;whiteSpace=wrap;html=1;fillColor=#f8cecc;strokeColor=#b85450;" vertex="1" parent="1">
          <mxGeometry x="-240" y="400" width="200" height="80" as="geometry" />
        </mxCell>
        <mxCell id="6sI7KEWMDTBBUR29SSHE-23" style="edgeStyle=orthogonalEdgeStyle;rounded=0;orthogonalLoop=1;jettySize=auto;html=1;exitX=1;exitY=0.5;exitDx=0;exitDy=0;entryX=0.5;entryY=1;entryDx=0;entryDy=0;strokeWidth=2;" edge="1" parent="1" source="6sI7KEWMDTBBUR29SSHE-6" target="6sI7KEWMDTBBUR29SSHE-3">
          <mxGeometry relative="1" as="geometry">
            <Array as="points">
              <mxPoint x="580" y="440" />
              <mxPoint x="580" y="620" />
              <mxPoint x="-140" y="620" />
            </Array>
          </mxGeometry>
        </mxCell>
        <mxCell id="6sI7KEWMDTBBUR29SSHE-6" value="&lt;font style=&quot;font-size: 16px;&quot;&gt;Kalman filter&lt;/font&gt;" style="rounded=1;whiteSpace=wrap;html=1;fillColor=#d5e8d4;strokeColor=#82b366;" vertex="1" parent="1">
          <mxGeometry x="360" y="400" width="200" height="80" as="geometry" />
        </mxCell>
      </root>
    </mxGraphModel>
  </diagram>
</mxfile>
